<svg id="Capa_1" data-name="Capa 1" xmlns="http://www.w3.org/2000/svg" viewBox="0 0 936 936"><defs><style>.cls-1{fill:#6ef0b1;}.cls-2{fill:#fff;}.cls-3{fill:#ea4954;}.cls-4{fill:#fec08c;}.cls-5{fill:#da7f3d;}</style></defs><circle class="cls-1" cx="468" cy="468" r="468"/><path class="cls-2" d="M485,781" transform="translate(-31 -29)"/><path class="cls-3" d="M498.58,819.84s195-19.84,306-297.84c66.28-166,3.86-248.9-57.2-288.78-73.52-48-171.51-35.44-228.65,31.25C504.63,280.92,498.58,294,498.58,294H499s-6.05-13.08-20.14-29.53c-57.14-66.69-155.13-79.27-228.66-31.25C189.14,273.1,126.73,356,193,522,304,800,499,819.84,499,819.84" transform="translate(-31 -29)"/><rect class="cls-4" x="131.15" y="385.28" width="779.03" height="205.61" rx="77.62" transform="translate(-205.29 296.72) rotate(-30)"/><circle class="cls-5" cx="220.5" cy="547.5" r="17.5"/><circle class="cls-5" cx="262.5" cy="523.5" r="17.5"/><circle class="cls-5" cx="299.5" cy="502.5" r="17.5"/><circle class="cls-5" cx="248.5" cy="595.5" r="17.5"/><circle class="cls-5" cx="290.5" cy="571.5" r="17.5"/><circle class="cls-5" cx="327.5" cy="550.5" r="17.5"/><circle class="cls-5" cx="275.5" cy="643.5" r="17.5"/><circle class="cls-5" cx="317.5" cy="619.5" r="17.5"/><circle class="cls-5" cx="354.5" cy="598.5" r="17.5"/><circle class="cls-5" cx="626.5" cy="314.5" r="17.5"/><circle class="cls-5" cx="668.5" cy="290.5" r="17.5"/><circle class="cls-5" cx="705.5" cy="269.5" r="17.5"/><circle class="cls-5" cx="654.5" cy="362.5" r="17.5"/><circle class="cls-5" cx="696.5" cy="338.5" r="17.5"/><circle class="cls-5" cx="733.5" cy="317.5" r="17.5"/><circle class="cls-5" cx="681.5" cy="410.5" r="17.5"/><circle class="cls-5" cx="723.5" cy="386.5" r="17.5"/><circle class="cls-5" cx="760.5" cy="365.5" r="17.5"/><rect class="cls-2" x="409.3" y="407.58" width="223.67" height="160.06" transform="translate(-204.99 296.89) rotate(-30)"/></svg>