<svg id="Capa_1" data-name="Capa 1" xmlns="http://www.w3.org/2000/svg" viewBox="0 0 968 952"><defs><style>.cls-1{fill:#508e6d;}.cls-2{fill:#6ef0b1;}.cls-3{fill:#fff;}.cls-4{fill:#bf003b;}.cls-5{fill:#ea4954;}.cls-6{fill:#fec08c;}.cls-7{fill:#da7f3d;}</style></defs><circle class="cls-1" cx="500" cy="484" r="468"/><circle class="cls-2" cx="468" cy="468" r="468"/><path class="cls-3" d="M464,772" transform="translate(-19 -19)"/><path class="cls-4" d="M498.58,813.84s195-19.84,306-297.84c66.28-166,3.86-248.9-57.2-288.78-73.52-48-171.51-35.44-228.65,31.25C504.63,274.92,498.58,288,498.58,288H499s-6.05-13.08-20.14-29.53c-57.14-66.69-155.13-79.27-228.66-31.25C189.14,267.1,126.73,350,193,516,304,794,499,813.84,499,813.84" transform="translate(-19 -19)"/><path class="cls-5" d="M477.58,810.84s195-19.84,306-297.84c66.28-166,3.86-248.9-57.2-288.78-73.52-48-171.51-35.44-228.65,31.25C483.63,271.92,477.58,285,477.58,285H478s-6.05-13.08-20.14-29.53c-57.14-66.69-155.13-79.27-228.66-31.25C168.14,264.1,105.73,347,172,513,283,791,478,810.84,478,810.84" transform="translate(-19 -19)"/><rect class="cls-6" x="110.15" y="376.28" width="779.03" height="205.61" rx="77.62" transform="translate(-191.6 295.02) rotate(-30)"/><circle class="cls-7" cx="211.5" cy="548.5" r="17.5"/><circle class="cls-7" cx="253.5" cy="524.5" r="17.5"/><circle class="cls-7" cx="290.5" cy="503.5" r="17.5"/><circle class="cls-7" cx="239.5" cy="596.5" r="17.5"/><circle class="cls-7" cx="281.5" cy="572.5" r="17.5"/><circle class="cls-7" cx="318.5" cy="551.5" r="17.5"/><circle class="cls-7" cx="266.5" cy="644.5" r="17.5"/><circle class="cls-7" cx="308.5" cy="620.5" r="17.5"/><circle class="cls-7" cx="345.5" cy="599.5" r="17.5"/><circle class="cls-7" cx="617.5" cy="315.5" r="17.5"/><circle class="cls-7" cx="659.5" cy="291.5" r="17.5"/><circle class="cls-7" cx="696.5" cy="270.5" r="17.5"/><circle class="cls-7" cx="645.5" cy="363.5" r="17.5"/><circle class="cls-7" cx="687.5" cy="339.5" r="17.5"/><circle class="cls-7" cx="724.5" cy="318.5" r="17.5"/><circle class="cls-7" cx="672.5" cy="411.5" r="17.5"/><circle class="cls-7" cx="714.5" cy="387.5" r="17.5"/><circle class="cls-7" cx="751.5" cy="366.5" r="17.5"/><rect class="cls-3" x="388.3" y="398.58" width="223.67" height="160.06" transform="translate(-191.3 295.19) rotate(-30)"/></svg>